<?xml version="1.0" encoding="UTF-8" standalone="no"?>
<!-- Created with Inkscape (http://www.inkscape.org/) -->

<svg
   xmlns:dc="http://purl.org/dc/elements/1.1/"
   xmlns:cc="http://creativecommons.org/ns#"
   xmlns:rdf="http://www.w3.org/1999/02/22-rdf-syntax-ns#"
   xmlns:svg="http://www.w3.org/2000/svg"
   xmlns="http://www.w3.org/2000/svg"
   xmlns:sodipodi="http://sodipodi.sourceforge.net/DTD/sodipodi-0.dtd"
   xmlns:inkscape="http://www.inkscape.org/namespaces/inkscape"
   id="svg3128"
   version="1.1"
   inkscape:version="0.48.5 r10040"
   width="1800"
   height="324.77051"
   xml:space="preserve"
   sodipodi:docname="g7_2015_RGB-logo.svg"><metadata
     id="metadata3134"><rdf:RDF><cc:Work
         rdf:about=""><dc:format>image/svg+xml</dc:format><dc:type
           rdf:resource="http://purl.org/dc/dcmitype/StillImage" /></cc:Work></rdf:RDF></metadata><defs
     id="defs3132"><clipPath
       clipPathUnits="userSpaceOnUse"
       id="clipPath3144"><path
         d="m 0,623.1445 593.531,0 L 593.531,219 0,219 0,623.1445 z"
         id="path3146"
         inkscape:connector-curvature="0" /></clipPath><clipPath
       clipPathUnits="userSpaceOnUse"
       id="clipPath3150"><path
         d="m 0,219 595,0 0,404 -595,0 0,-404 z"
         id="path3152"
         inkscape:connector-curvature="0" /></clipPath><clipPath
       clipPathUnits="userSpaceOnUse"
       id="clipPath3172"><path
         d="m 0,219 595,0 0,404 -595,0 0,-404 z"
         id="path3174"
         inkscape:connector-curvature="0" /></clipPath></defs><sodipodi:namedview
     pagecolor="#ffffff"
     bordercolor="#666666"
     borderopacity="1"
     objecttolerance="10"
     gridtolerance="10"
     guidetolerance="10"
     inkscape:pageopacity="0"
     inkscape:pageshadow="2"
     inkscape:window-width="1920"
     inkscape:window-height="1031"
     id="namedview3130"
     showgrid="false"
     inkscape:zoom="0.57374745"
     inkscape:cx="281.13749"
     inkscape:cy="15.805581"
     inkscape:window-x="0"
     inkscape:window-y="0"
     inkscape:window-maximized="1"
     inkscape:current-layer="g3136"
     fit-margin-top="0"
     fit-margin-left="0"
     fit-margin-right="0"
     fit-margin-bottom="0" /><g
     id="g3136"
     inkscape:groupmode="layer"
     inkscape:label="g7_2015_RGB"
     transform="matrix(1.25,0,0,-1.25,0,778.75)"><g
       id="g3138" /><g
       id="g3140"><g
         id="g3142"
         clip-path="url(#clipPath3144)"><g
           id="g3148"
           clip-path="url(#clipPath3150)"><path
             d="M 208.4635,491.5015 74.30952,447.6252 0,363.1836 l 34.31356,0 53.74075,66.5802 132.62519,46.6748 76.2027,146.76 -88.4187,-131.6971"
             style="fill:#0778a5;fill-opacity:1;fill-rule:nonzero;stroke:none"
             id="path3154"
             inkscape:connector-curvature="0" /><path
             d="m 200.9506,540.5391 -44.3432,-23.5067 -73.60917,-153.8488 29.48807,0 57.4816,143.5914 39.845,22.8463 87.0693,93.5773 -95.9316,-82.6595"
             style="fill:#004f80;fill-opacity:1;fill-rule:nonzero;stroke:none"
             id="path3156"
             inkscape:connector-curvature="0" /><path
             d="m 231.9817,430.3987 -39.1704,13.4401 -36.2039,-80.6552 28.9187,0 18.7838,55.2382 44.5937,-15.8344 47.9786,220.6112 -64.9005,-192.7999"
             style="fill:#c40046;fill-opacity:1;fill-rule:nonzero;stroke:none"
             id="path3158"
             inkscape:connector-curvature="0" /><path
             d="m 296.8822,623.1986 56.804,-260.015 31.8282,0 -88.6322,260.015"
             style="fill:#ffc819;fill-opacity:1;fill-rule:nonzero;stroke:none"
             id="path3160"
             inkscape:connector-curvature="0" /><path
             d="m 432.1465,419.0225 -125.8895,37.9035 -9.3748,166.2726 -10.0808,-180.1341 128.5598,-39.4551 16.7084,-40.4258 29.4967,0 -29.4198,55.8389"
             style="fill:#f28502;fill-opacity:1;fill-rule:nonzero;stroke:none"
             id="path3162"
             inkscape:connector-curvature="0" /><path
             d="m 501.5394,430.504 -107.2423,47.5544 -97.4149,145.1402 81.5919,-155.3235 109.5711,-55.6368 29.2376,-49.0547 32.2154,0 -47.9588,67.3204"
             style="fill:#74b917;fill-opacity:1;fill-rule:nonzero;stroke:none"
             id="path3164"
             inkscape:connector-curvature="0" /><path
             d="m 539.6735,454.8734 -63.1212,29.8155 -25.4711,37.1348 -57.8346,18.7297 -96.3644,82.6452 87.5533,-93.6114 55.9983,-20.2187 21.7901,-37.3455 63.7931,-31.7286 37.2146,-77.1108 30.2994,0 -53.8575,91.6898"
             style="fill:#23614e;fill-opacity:1;fill-rule:nonzero;stroke:none"
             id="path3166"
             inkscape:connector-curvature="0" /></g></g></g><g
       id="g3168"
       transform="matrix(1.3199485,0,0,1.3199485,-245.56609,-165.20406)"><g
         id="g3170"
         clip-path="url(#clipPath3172)"
         transform="translate(550.76497,248.19282)"><path
           d="m 210.667,310.4706 c -1.3665,0.9565 -4.7144,2.0497 -8.2019,2.0497 -7.9884,0 -15.4415,-5.1927 -15.4415,-19.1339 0,-13.4573 5.9443,-19.9482 14.4195,-19.9482 2.4625,0 4.649,0.4071 6.4226,0.9566 l 0,13.4601 -3.9601,0.9565 c -0.6832,0.205 -0.9622,0.41 -0.9622,0.8199 0,0.615 0.4128,1.5004 0.7573,2.1865 l 17.0813,0 c 0,0 0.0655,-0.4783 0.0655,-0.82 0,-1.0932 -0.6121,-1.9814 -2.3231,-2.528 l -1.5031,-0.5494 0,-13.8701 c -1.8448,-1.6398 -7.1713,-5.5343 -17.5568,-5.5343 -12.3726,0 -22.0036,7.2424 -22.0036,23.8484 0,17.7645 13.3889,24.9416 25.0782,24.9416 7.5158,0 11.342,-2.1181 13.5939,-3.2825 0.205,-2.1181 0.41,-5.876 0.41,-6.5564 0,-2.5309 -0.6833,-4.1024 -2.8013,-4.1024 -0.6121,0 -1.2299,0.1367 -1.5687,0.2079 l -1.506,6.898"
           style="fill:#000000;fill-opacity:1;fill-rule:nonzero;stroke:none"
           id="path3176"
           inkscape:connector-curvature="0" /><path
           d="m 238.78,312.0421 0,-16.5348 14.69,0 0,-4.6461 -14.69,0 0,-16.8109 14.69,0 1.8476,7.6553 c 0.4783,0.1366 1.1616,0.2733 1.7793,0.2733 1.7053,0 2.2519,-1.3694 2.2519,-3.8262 0,-1.1616 -0.2733,-6.2888 -0.4782,-8.8168 l -34.1627,0 c 0,0 -0.074,0.5494 -0.074,0.891 0,1.0904 0.5522,2.047 2.3259,2.5252 l 2.7358,0.6861 0,39.0821 -4.0312,0.9566 c -0.6861,0.1395 -0.9565,0.3416 -0.9565,0.7544 0,0.6121 0.4782,1.5032 0.7487,2.2548 l 33.0068,0 c 0.1338,-2.1893 0.4783,-7.382 0.4783,-7.997 0,-2.8696 -0.7573,-4.0312 -2.7358,-4.0312 -0.4783,0 -1.1616,0.0684 -1.5003,0.205 l -1.6399,7.3792 -14.2857,0"
           style="fill:#000000;fill-opacity:1;fill-rule:nonzero;stroke:none"
           id="path3178"
           inkscape:connector-curvature="0" /><path
           d="m 282.1012,311.7688 -1.9131,0 0,-18.5845 1.9131,0 c 7.5841,0 10.8637,3.6895 10.8637,9.4317 0,5.9415 -3.2796,9.1528 -10.8637,9.1528 z m 11.4103,-21.3859 10.5164,-17.0158 3.9657,-0.8854 c 0.7516,-0.2078 0.9566,-0.4128 0.9566,-0.8199 0,-0.6178 -0.4071,-1.506 -0.7516,-2.3259 l -12.8423,0 -11.0032,19.2706 c 0,0 -1.2299,-0.0712 -2.047,-0.0712 l -2.118,0 0,-15.0971 4.3699,-0.9565 c 0.7516,-0.2078 0.9566,-0.4128 0.9566,-0.8199 0,-0.6178 -0.41,-1.506 -0.7516,-2.3259 l -18.7211,0 c 0,0 -0.0712,0.5494 -0.0712,0.891 0,1.0904 0.5494,2.047 2.3231,2.5252 l 2.7358,0.6861 0,39.0821 -4.0312,0.9566 c -0.6832,0.1395 -0.9565,0.3416 -0.9565,0.7544 0,0.6121 0.4782,1.5032 0.7515,2.2548 l 15.3733,0 c 13.7988,0 20.2954,-4.5095 20.2954,-13.5313 0,-5.9443 -3.1429,-10.2488 -8.9506,-12.5719"
           style="fill:#000000;fill-opacity:1;fill-rule:nonzero;stroke:none"
           id="path3180"
           inkscape:connector-curvature="0" /><path
           d="m 363.508,312.5203 0.5494,-39.0821 4.4383,-0.9565 c 0.7573,-0.2078 0.9566,-0.4128 0.9566,-0.8199 0,-0.6178 -0.4071,-1.506 -0.7516,-2.3259 l -18.5816,0 c 0,0 -0.0712,0.5494 -0.0712,0.891 0,1.0904 0.5494,2.047 2.3231,2.5252 l 2.6618,0.6861 -0.5438,30.4048 -0.1338,0 -12.9163,-33.9577 -6.0098,0 -12.438,33.4794 -0.1395,0 -0.4783,-29.9265 4.4411,-0.9565 c 0.7516,-0.2078 0.9566,-0.4128 0.9566,-0.8199 0,-0.6178 -0.41,-1.506 -0.7488,-2.3259 l -14.8977,0 c 0,0 -0.0655,0.5494 -0.0655,0.891 0,1.0904 0.5438,2.047 2.3174,2.5252 l 2.6703,0.6861 0.4783,39.0821 -3.8974,0.9566 c -0.6861,0.1395 -0.9565,0.3416 -0.9565,0.7544 0,0.6121 0.4099,1.5032 0.7487,2.2548 l 14.2857,0 12.5719,-34.6439 0.1395,0 12.9818,34.6439 15.2365,0 c 0,0 0.0655,-0.5495 0.0655,-0.8911 0,-1.0932 -0.5437,-1.9786 -2.323,-2.3914 l -2.8697,-0.6833"
           style="fill:#000000;fill-opacity:1;fill-rule:nonzero;stroke:none"
           id="path3182"
           inkscape:connector-curvature="0" /><path
           d="m 394.1519,307.0543 -6.2176,-17.5596 12.2986,0 -5.9415,17.5596 -0.1395,0 z m 21.1125,-33.8239 3.2142,-0.7487 c 0.7487,-0.2078 0.9565,-0.4128 0.9565,-0.8199 0,-0.6178 -0.4128,-1.506 -0.7515,-2.3259 l -17.6308,0 c 0,0 -0.0684,0.5494 -0.0684,0.891 0,1.0904 0.5467,2.047 2.326,2.5252 l 2.323,0.6861 -3.8974,11.6153 -15.3077,0 -4.0995,-11.7519 5.261,-0.8911 c 0.7573,-0.1366 0.9566,-0.4071 0.9566,-0.8199 0,-0.6149 -0.4783,-1.6398 -0.7516,-2.2547 l -15.8515,0 c 0,0 -0.0683,0.5494 -0.0683,0.891 0,1.0904 0.5466,2.1153 2.3259,2.5252 l 2.4569,0.615 16.4692,42.9823 6.2831,0.6149 15.8543,-43.7339"
           style="fill:#000000;fill-opacity:1;fill-rule:nonzero;stroke:none"
           id="path3184"
           inkscape:connector-curvature="0" /><path
           d="m 463.505,312.5203 0,-43.1844 -5.6055,0 -24.6655,36.8985 -0.1395,0 0,-32.7962 4.5095,-0.9565 c 0.7573,-0.2078 0.9622,-0.4128 0.9622,-0.8199 0,-0.6178 -0.4839,-1.506 -0.7544,-2.3259 l -15.0316,0 c 0,0 -0.0711,0.5494 -0.0711,0.891 0,1.0904 0.5494,2.047 2.323,2.5252 l 2.7359,0.6861 0,39.0821 -4.0312,0.9566 c -0.6833,0.1395 -0.9566,0.3416 -0.9566,0.7544 0,0.6121 0.4783,1.5032 0.7516,2.2548 l 13.463,0 21.0442,-31.5692 0.1338,0 0,27.6034 -3.96,0.9566 c -0.6833,0.1395 -0.9566,0.3416 -0.9566,0.7544 0,0.6121 0.4071,1.5032 0.7516,2.2548 l 14.6899,0 c 0,0 0.0684,-0.5495 0.0684,-0.8911 0,-1.0932 -0.5467,-1.9786 -2.326,-2.3914 l -2.9351,-0.6833"
           style="fill:#000000;fill-opacity:1;fill-rule:nonzero;stroke:none"
           id="path3186"
           inkscape:connector-curvature="0" /><path
           d="m 510.2225,312.6598 -12.2331,-24.6683 0,-14.5533 4.444,-0.9565 c 0.7516,-0.2078 0.9565,-0.4128 0.9565,-0.8199 0,-0.6178 -0.4071,-1.506 -0.7516,-2.3259 l -18.7866,0 c 0,0 -0.074,0.5494 -0.074,0.891 0,1.0904 0.5495,2.047 2.3259,2.5252 l 2.6619,0.6861 0,12.9818 -13.0502,26.1715 -3.2084,0.8199 c -0.6833,0.205 -0.9566,0.4071 -0.9566,0.8199 0,0.6121 0.4071,1.5032 0.7516,2.2548 l 18.0379,0 c 0,0 0.0655,-0.5495 0.0655,-0.8911 0,-1.0932 -0.5438,-1.9786 -2.3174,-2.4569 l -2.5964,-0.6178 9.1528,-20.5687 0.1366,0 9.5656,20.7737 -4.239,0.7516 c -0.6776,0.1395 -0.9537,0.3416 -0.9537,0.7544 0,0.6121 0.4099,1.5032 0.7544,2.2548 l 14.6899,0 c 0,0 0.0684,-0.5495 0.0684,-0.8911 0,-1.1587 -0.5466,-1.9786 -2.3259,-2.4569 l -2.1181,-0.4783"
           style="fill:#000000;fill-opacity:1;fill-rule:nonzero;stroke:none"
           id="path3188"
           inkscape:connector-curvature="0" /><path
           d="m 112.0707,310.4706 c -1.3665,0.9565 -4.7145,2.0497 -8.2019,2.0497 -7.98839,0 -15.4387,-5.1927 -15.4387,-19.1339 0,-13.4573 5.94146,-19.9482 14.4166,-19.9482 2.4626,0 4.649,0.4071 6.4226,0.9566 l 0,13.4601 -3.96,0.9565 c -0.6832,0.205 -0.9565,0.41 -0.9565,0.8199 0,0.615 0.4071,1.5004 0.7515,2.1865 l 17.0814,0 c 0,0 0.0654,-0.4783 0.0654,-0.82 0,-1.0932 -0.6092,-1.9814 -2.323,-2.528 l -1.5003,-0.5494 0,-13.8701 c -1.8477,-1.6398 -7.1742,-5.5343 -17.5596,-5.5343 -12.37263,0 -22.00365,7.2424 -22.00365,23.8484 0,17.7645 13.38892,24.9416 25.07825,24.9416 7.5158,0 11.342,-2.1181 13.5939,-3.2825 0.205,-2.1181 0.4128,-5.876 0.4128,-6.5564 0,-2.5309 -0.6861,-4.1024 -2.8042,-4.1024 -0.6121,0 -1.227,0.1367 -1.5658,0.2079 l -1.5088,6.898"
           style="fill:#000000;fill-opacity:1;fill-rule:nonzero;stroke:none"
           id="path3190"
           inkscape:connector-curvature="0" /><path
           d="m 137.5304,269.3387 -6.3571,0 19.2991,39.8337 -17.0159,0 -1.096,-6.1493 c -0.5438,-0.205 -1.0904,-0.2733 -1.6342,-0.2733 -2.118,0 -2.8013,1.5032 -2.8013,3.9629 0,1.1615 0.2705,6.4909 0.5438,9.7734 l 28.8361,0 c 0,0 0.41,-0.5495 0.41,-1.711 0,-0.7516 -0.1367,-1.7082 -0.6833,-2.938 l -19.5012,-42.4984"
           style="fill:#000000;fill-opacity:1;fill-rule:nonzero;stroke:none"
           id="path3192"
           inkscape:connector-curvature="0" /><path
           d="m 128.52,227.4211 -3.7323,-3.96 0,-0.1139 7.9969,0 0.8114,3.5358 c 0.2676,0.0741 0.6491,0.1538 0.9936,0.1538 0.9622,0 1.2697,-0.7687 1.2697,-2.1523 0,-0.4242 -0.1908,-3.6924 -0.3075,-5.4205 l -15.6465,0 -0.3046,2.1153 6.4937,7.3023 c 2.2292,2.4995 3.4989,4.9991 3.4989,8.4581 0,3.6924 -1.2299,5.113 -3.2654,5.113 -1.3067,0 -2.1921,-0.3844 -2.3857,-0.5011 -0.2278,-0.8854 -0.4612,-2.918 -0.5011,-4.1906 -0.2277,-0.074 -0.6092,-0.1509 -1.0732,-0.1509 -1.8847,0 -2.6903,0.9964 -2.6903,2.0754 0,3.1515 2.8412,5.2269 7.4958,5.2269 4.575,0 7.5329,-2.4227 7.5329,-6.8809 0,-4.0768 -3.3081,-7.5329 -6.1863,-10.6104"
           style="fill:#000000;fill-opacity:1;fill-rule:nonzero;stroke:none"
           id="path3194"
           inkscape:connector-curvature="0" /><path
           d="m 144.6875,231.9562 c 0,-6.8809 1.2697,-10.4566 3.4191,-10.4566 2.232,0 3.3878,3.4589 3.3878,10.4566 0,6.8809 -1.2669,10.4196 -3.3878,10.4196 -2.2661,0 -3.4191,-3.4219 -3.4191,-10.4196 z m 11.8772,0 c 0,-8.8054 -3.496,-12.9562 -8.6061,-12.9562 -5.1558,0 -8.3073,4.1508 -8.3073,12.9562 0,8.8054 3.5359,12.9562 8.6517,12.9562 5.1102,0 8.2617,-4.1508 8.2617,-12.9562"
           style="fill:#000000;fill-opacity:1;fill-rule:nonzero;stroke:none"
           id="path3196"
           inkscape:connector-curvature="0" /><path
           d="m 170.9159,222.0376 4.0369,-0.6548 c 0.5779,-0.1138 0.8113,-0.2306 0.8113,-0.575 0,-0.4612 -0.4213,-1.3438 -0.4213,-1.3438 l -14.112,0 c 0,0 -0.0399,0.3075 -0.0399,0.4982 0,0.615 0.0769,1.2698 1.617,1.5374 l 3.1886,0.538 0,18.4934 -5.3835,-1.0021 c 0,0.0399 -0.111,0.4242 -0.111,1.0021 0,0.5751 0.3843,0.9993 1.1501,1.3068 l 6.3457,2.6134 2.9181,0 0,-22.4136"
           style="fill:#000000;fill-opacity:1;fill-rule:nonzero;stroke:none"
           id="path3198"
           inkscape:connector-curvature="0" /><path
           d="m 193.7963,240.4143 -9.4573,0 -0.4242,-4.9564 c 7.3791,-0.3473 10.6872,-3.3081 10.6872,-8.3841 0,-4.1508 -3.2682,-8.0738 -9.073,-8.0738 -5.1871,0 -6.3771,2.3487 -6.3771,3.7294 0,1.4633 0.8826,2.5395 2.5736,2.8071 0.1167,-0.2306 0.9623,-3.9231 4.4212,-3.9231 2.8839,0 4.1537,1.7338 4.1537,4.3074 0,3.6924 -2.8868,5.3835 -9.6937,5.3835 l 1.1957,13.1469 12.2217,0 -0.2278,-4.0369"
           style="fill:#000000;fill-opacity:1;fill-rule:nonzero;stroke:none"
           id="path3200"
           inkscape:connector-curvature="0" /><path
           d="m 208.7055,245.9629 3.0035,0 0,-26.4533 -3.0035,0 0,26.4533 z"
           style="fill:#000000;fill-opacity:1;fill-rule:nonzero;stroke:none"
           id="path3202"
           inkscape:connector-curvature="0" /><path
           d="m 237.9972,242.6434 c -1.2698,0.9224 -2.6533,1.2697 -3.9259,1.2697 -2.232,0 -3.9999,-1.153 -3.9999,-3.6525 0,-2.1893 1.6968,-3.1117 2.8868,-3.8063 l 3.4589,-1.9985 c 3.4248,-1.9986 5.8048,-3.8433 5.8048,-7.6895 0,-4.4981 -3.3422,-7.7663 -9.1869,-7.7663 -3.6525,0 -6.3827,1.1928 -7.1884,1.6939 -0.0768,1.19 -0.1936,3.5757 -0.1936,4.1508 0,1.617 0.4612,2.3088 1.6569,2.3088 0.3046,0 0.6491,-0.0797 0.8826,-0.1964 l 0.9224,-4.1508 c 0.8455,-0.7288 2.6134,-1.2669 4.071,-1.2669 2.8099,0 4.4611,1.19 4.4611,3.5757 0,2.6135 -1.8021,3.3451 -4.8056,5.1529 l -2.3059,1.3836 c -2.6533,1.6113 -4.8825,3.3792 -4.8825,7.4958 0,4.4583 3.7295,7.3023 8.8453,7.3023 3.5757,0 5.4945,-0.9224 6.4938,-1.4975 0.0797,-1.0391 0.1964,-3.4219 0.1964,-3.886 0,-1.3807 -0.39,-2.2632 -1.58,-2.2632 -0.3445,0 -0.689,0.0341 -0.8854,0.1138 l -0.7259,3.7266"
           style="fill:#000000;fill-opacity:1;fill-rule:nonzero;stroke:none"
           id="path3204"
           inkscape:connector-curvature="0" /><path
           d="m 255.1724,236.1098 c -2.4198,0 -4.3443,-1.691 -4.3443,-6.7272 0,-4.6888 1.8078,-7.3051 5.0788,-7.3051 2.2292,0 3.4192,1.0733 4.3415,1.9216 0.4612,-0.4612 0.6947,-1.1928 0.6947,-1.5373 0,-0.9992 -2.1181,-3.4618 -6.5763,-3.4618 -5.3436,0 -8.498,3.1544 -8.498,9.5741 0,6.5365 4.4611,10.0723 9.8047,10.0723 4.5351,0 5.5372,-2.306 5.5372,-3.459 0,-1.0391 -0.5011,-2.2291 -2.3857,-2.5394 -0.5722,1.5373 -1.4234,3.4618 -3.6526,3.4618"
           style="fill:#000000;fill-opacity:1;fill-rule:nonzero;stroke:none"
           id="path3206"
           inkscape:connector-curvature="0" /><path
           d="m 270.8531,235.8792 0.0769,0 c 0.8455,1.0363 2.6903,2.7672 5.9158,2.7672 3.8092,0 5.8447,-2.269 5.8447,-6.6503 l 0,-10.3827 2.1181,-0.4953 c 0.3843,-0.0797 0.5323,-0.1964 0.5323,-0.5011 0,-0.3843 -0.3444,-1.1159 -0.3815,-1.153 l -9.3805,0 c 0,0 -0.0398,0.3075 -0.0398,0.4214 0,0.6918 0.501,1.0363 1.1957,1.3067 l 1.1131,0.4213 0,9.577 c 0,3.1885 -1.4974,3.997 -3.2312,3.997 -1.9957,0 -3.1487,-0.8854 -3.7636,-1.4633 l 0,-12.1107 1.9957,-0.4612 c 0.39,-0.1138 0.538,-0.1907 0.538,-0.4953 0,-0.3872 -0.3444,-1.1558 -0.3814,-1.1929 l -9.4204,0 c 0,0 -0.0399,0.3075 -0.0399,0.4214 0,0.6918 0.4612,1.0363 1.1957,1.2668 l 1.2669,0.4612 0,23.0684 -2.6505,0.4213 c 0,0 -0.0398,0.3474 -0.0398,0.5011 0,0.6548 0.501,1.116 1.4234,1.1928 l 6.1123,0.5751 0,-11.4929"
           style="fill:#000000;fill-opacity:1;fill-rule:nonzero;stroke:none"
           id="path3208"
           inkscape:connector-curvature="0" /><path
           d="m 294.5278,221.6134 2.1124,-0.4953 c 0.3844,-0.0797 0.5381,-0.1964 0.5381,-0.5011 0,-0.3843 -0.3445,-1.1159 -0.3843,-1.153 l -9.5343,0 c 0,0 -0.037,0.3075 -0.037,0.4214 0,0.6918 0.4612,1.0363 1.19,1.2668 l 1.2726,0.4612 0,23.0684 -2.659,0.4213 c 0,0 -0.0313,0.3474 -0.0313,0.5011 0,0.6548 0.4925,1.116 1.4177,1.1928 l 6.1151,0.5751 0,-25.7587"
           style="fill:#000000;fill-opacity:1;fill-rule:nonzero;stroke:none"
           id="path3210"
           inkscape:connector-curvature="0" /><path
           d="m 304.9788,228.8816 c 0,-5.1899 1.7309,-7.3422 4.3443,-7.3422 2.6135,0 4.4583,1.9985 4.4583,7.1884 0,5.1529 -1.8448,7.419 -4.4583,7.419 -2.6134,0 -4.3443,-2.0754 -4.3443,-7.2652 z m 13.8017,0.1138 c 0,-6.7272 -4.7714,-9.9954 -9.7307,-9.9954 -5.2269,0 -9.0673,3.0775 -9.0673,9.6111 0,6.5365 4.6461,10.0353 9.8018,10.0353 5.2269,0 8.9962,-2.9209 8.9962,-9.651"
           style="fill:#000000;fill-opacity:1;fill-rule:nonzero;stroke:none"
           id="path3212"
           inkscape:connector-curvature="0" /><path
           d="m 331.341,235.7255 c -0.4214,0.3074 -1.3836,0.6918 -2.417,0.6918 -1.0021,0 -2.3089,-0.5011 -2.3089,-1.9985 0,-1.6541 1.7281,-2.4996 3.459,-3.5387 2.3857,-1.4235 4.9593,-2.9209 4.9593,-6.2262 0,-3.2312 -2.807,-5.6539 -7.2681,-5.6539 -2.3003,0 -4.2647,0.6946 -5.1472,1.2327 -0.1167,0.8057 -0.1964,1.4605 -0.1964,2.7672 0,1.7679 0.464,2.4995 1.7679,2.4995 0.1964,0 0.6576,-0.0398 0.6576,-0.0398 l 0.8854,-3.422 c 0.3445,-0.2676 1.5003,-0.6889 2.3829,-0.6889 1.4974,0 2.7643,0.5751 2.7643,2.0725 0,1.7338 -1.9957,2.5394 -3.6127,3.5757 -2.38,1.5772 -4.612,2.8839 -4.612,6.4596 0,3.0775 2.6533,5.1899 6.5735,5.1899 2.4255,0 4.2305,-0.8455 4.9593,-1.5373 0.0398,-0.3844 0.1167,-0.9623 0.1167,-1.8818 0,-1.5772 -0.2705,-2.6163 -1.8846,-2.6163 -0.1566,0 -0.6178,0.037 -0.6178,0.037 l -0.4612,3.0775"
           style="fill:#000000;fill-opacity:1;fill-rule:nonzero;stroke:none"
           id="path3214"
           inkscape:connector-curvature="0" /><path
           d="m 347.5996,235.7255 c -0.4214,0.3074 -1.3836,0.6918 -2.417,0.6918 -1.0021,0 -2.3089,-0.5011 -2.3089,-1.9985 0,-1.6541 1.7281,-2.4996 3.459,-3.5387 2.3857,-1.4235 4.9593,-2.9209 4.9593,-6.2262 0,-3.2312 -2.807,-5.6539 -7.2681,-5.6539 -2.3003,0 -4.2647,0.6946 -5.1472,1.2327 -0.1167,0.8057 -0.1964,1.4605 -0.1964,2.7672 0,1.7679 0.4612,2.4995 1.7679,2.4995 0.1964,0 0.6576,-0.0398 0.6576,-0.0398 l 0.8825,-3.422 c 0.3474,-0.2676 1.5032,-0.6889 2.3857,-0.6889 1.4975,0 2.7644,0.5751 2.7644,2.0725 0,1.7338 -1.9957,2.5394 -3.6127,3.5757 -2.38,1.5772 -4.612,2.8839 -4.612,6.4596 0,3.0775 2.6533,5.1899 6.5735,5.1899 2.4255,0 4.2305,-0.8455 4.9593,-1.5373 0.0398,-0.3844 0.1167,-0.9623 0.1167,-1.8818 0,-1.5772 -0.2733,-2.6163 -1.8847,-2.6163 -0.1565,0 -0.6177,0.037 -0.6177,0.037 l -0.4612,3.0775"
           style="fill:#000000;fill-opacity:1;fill-rule:nonzero;stroke:none"
           id="path3216"
           inkscape:connector-curvature="0" /><path
           d="m 371.1604,243.4918 0,-9.3065 8.2674,0 0,-2.6134 -8.2674,0 0,-9.4574 8.2674,0 1.0334,4.3073 c 0.2733,0.0769 0.6577,0.1538 1.0021,0.1538 0.9623,0 1.2669,-0.7687 1.2669,-2.1523 0,-0.6548 -0.1509,-3.5358 -0.2676,-4.9593 l -19.2222,0 c 0,0 -0.037,0.3075 -0.037,0.4982 0,0.615 0.3046,1.1559 1.3067,1.4206 l 1.5402,0.3872 0,21.9894 -2.269,0.5381 c -0.3843,0.0797 -0.5409,0.1936 -0.5409,0.4242 0,0.3473 0.2676,0.8455 0.4242,1.2668 l 18.5702,0 c 0.0741,-1.2298 0.2676,-4.1507 0.2676,-4.4952 0,-1.6171 -0.4241,-2.269 -1.5401,-2.269 -0.2676,0 -0.652,0.037 -0.8456,0.1139 l -0.9223,4.1536 -8.034,0"
           style="fill:#000000;fill-opacity:1;fill-rule:nonzero;stroke:none"
           id="path3218"
           inkscape:connector-curvature="0" /><path
           d="m 392.9904,221.6134 2.1124,-0.4953 c 0.3872,-0.0797 0.538,-0.1964 0.538,-0.5011 0,-0.3843 -0.3444,-1.1159 -0.3843,-1.153 l -9.5342,0 c 0,0 -0.0342,0.3075 -0.0342,0.4214 0,0.6918 0.4612,1.0363 1.19,1.2668 l 1.2669,0.4612 0,23.0684 -2.6505,0.4213 c 0,0 -0.0398,0.3474 -0.0398,0.5011 0,0.6548 0.501,1.116 1.4234,1.1928 l 6.1123,0.5751 0,-25.7587"
           style="fill:#000000;fill-opacity:1;fill-rule:nonzero;stroke:none"
           id="path3220"
           inkscape:connector-curvature="0" /><path
           d="m 428.6648,221.6134 2.1124,-0.4953 c 0.3843,-0.0797 0.538,-0.1964 0.538,-0.5011 0,-0.3843 -0.3445,-1.1159 -0.3815,-1.153 l -9.3805,0 c 0,0 -0.0398,0.3075 -0.0398,0.4214 0,0.6918 0.501,1.0363 1.19,1.3067 l 1.1188,0.4213 0,9.577 c 0,3.2284 -1.5402,3.997 -3.2312,3.997 -1.8847,0 -3.0747,-0.8085 -3.7693,-1.4234 0.0769,-0.5381 0.1167,-1.153 0.1167,-1.7679 l 0,-10.3827 2.1494,-0.4953 c 0.3844,-0.0797 0.5409,-0.1964 0.5409,-0.5011 0,-0.3843 -0.3444,-1.1159 -0.3843,-1.153 l -9.3805,0 c 0,0 -0.037,0.3075 -0.037,0.4214 0,0.6918 0.4612,1.0363 1.19,1.3067 l 1.0761,0.4213 0,9.577 c 0,3.2284 -1.4234,3.997 -3.1116,3.997 -1.7309,0 -2.8469,-0.6918 -3.5359,-1.2327 l 0,-12.3413 1.9957,-0.4612 c 0.3815,-0.1138 0.5381,-0.1907 0.5381,-0.4953 0,-0.3872 -0.3445,-1.1558 -0.3844,-1.1929 l -9.3805,0 c 0,0 -0.037,0.3075 -0.037,0.4214 0,0.6918 0.4612,1.0021 1.19,1.2668 l 1.227,0.4612 0,14.1121 -2.6134,0.4612 c 0,0 -0.037,0.3074 -0.037,0.4612 0,0.6519 0.501,1.1131 1.4234,1.1928 l 6.0781,0.5751 -0.2363,-2.4597 0.1168,0 c 0.9252,1.0733 2.77,2.6903 5.9243,2.6903 2.4968,0 4.2248,-1.0761 5.0703,-3.1544 1.0392,1.1929 3.0747,3.1544 6.4596,3.1544 3.7323,0 5.8846,-2.306 5.8846,-6.6503 l 0,-10.3827"
           style="fill:#000000;fill-opacity:1;fill-rule:nonzero;stroke:none"
           id="path3222"
           inkscape:connector-curvature="0" /><path
           d="m 442.3754,227.8054 c -2.5736,-0.1907 -4.0369,-1.2697 -4.0369,-3.1116 0,-1.5032 0.8854,-2.4996 2.1921,-2.4996 1.227,0 2.2291,0.7658 2.6134,1.227 l 0,4.4241 -0.7686,-0.0399 z m 5.5372,-4.1137 c 0,-1.3466 0.501,-1.7281 1.1131,-1.7281 0.9224,0 1.3836,0.5352 1.58,0.8057 0.2278,-0.2705 0.5723,-0.8057 0.5723,-1.2299 0,-0.6177 -1.19,-2.4995 -4.0768,-2.4995 -1.8789,0 -3.1116,0.8455 -3.5757,2.77 l -0.0711,0 c -0.4214,-0.8882 -1.7338,-2.77 -4.8084,-2.77 -2.921,0 -5.1102,2.0782 -5.1102,5.1528 0,4.1878 4.3415,5.6112 8.6118,5.6112 l 0.9964,0 0,1.5772 c 0,3.7295 -0.9964,4.8426 -3.2312,4.8426 -0.6519,0 -1.2668,-0.2306 -1.5743,-0.3445 -0.3445,-0.8085 -0.6178,-1.9615 -0.8057,-3.3821 0,0 -0.5779,-0.0797 -1.0391,-0.0797 -1.3864,0 -2.1921,0.7316 -2.1921,2.0384 0,2.3828 2.9978,4.1906 7.1115,4.1906 4.4213,0 6.4995,-2.343 6.4995,-6.8809 l 0,-8.0738"
           style="fill:#000000;fill-opacity:1;fill-rule:nonzero;stroke:none"
           id="path3224"
           inkscape:connector-curvature="0" /><path
           d="m 471.0891,221.6932 2.8014,-0.3844 c 0,0 0.0398,-0.1566 0.0398,-0.3074 0,-0.7317 -0.501,-1.2299 -1.4177,-1.3068 l -6.0383,-0.4612 0,2.5765 -0.0769,0 C 465.8565,221.0014 464.1285,219 460.8261,219 c -4.3102,0 -5.9614,2.4626 -5.9614,7.0375 l 0,9.688 -2.6135,0.4612 c 0,0 -0.0398,0.3074 -0.0398,0.4612 0,0.6519 0.501,1.1131 1.4234,1.1928 l 6.0724,0.5751 0,-12.1847 c 0,-3.5017 1.6911,-4.0369 3.1145,-4.0369 1.6171,0 2.7302,0.8427 3.4249,1.7679 l 0,11.7634 -2.6192,0.4612 c 0,0 -0.0398,0.3074 -0.0398,0.4612 0,0.6519 0.501,1.1131 1.4234,1.1928 l 6.0781,0.5751 0,-16.7226"
           style="fill:#000000;fill-opacity:1;fill-rule:nonzero;stroke:none"
           id="path3226"
           inkscape:connector-curvature="0" /></g></g></g></svg>