<svg xmlns="http://www.w3.org/2000/svg" xmlns:xlink="http://www.w3.org/1999/xlink" version="1.1" id="Layer_1" x="0px" y="0px" width="100px" height="100px" viewBox="5.0 -10.0 100.0 135.0" enable-background="new 0 0 100 100" xml:space="preserve">
<path fill="none" d="M63.739,36.049h19.166V19.398H6.276v40.324h55.105V38.407C61.382,37.105,62.437,36.049,63.739,36.049z"/>
<path fill="none" d="M82.972,71.373H62.866v7.095h21.171v-7.249C83.699,71.316,83.342,71.373,82.972,71.373z"/>
<rect x="91.929" y="58.131" fill="none" width="5.461" height="22.429"/>
<path fill="none" d="M90.272,58.131h-3.53v9.473c0,1.478-0.854,2.756-2.096,3.373v7.491h5.626V58.131z"/>
<rect x="86.742" y="41.81" fill="none" width="3.53" height="13.266"/>
<rect x="62.866" y="41.81" fill="none" width="20.039" height="17.912"/>
<path fill="none" d="M84.646,70.977c1.242-0.617,2.096-1.896,2.096-3.373v-9.473h-2.096V70.977z"/>
<path fill="none" d="M84.037,71.219V56.962c0-1.042,0.843-1.886,1.886-1.886h0.819V41.81h-3.837v17.912H62.866v11.651h20.105  C83.342,71.373,83.699,71.316,84.037,71.219z"/>
<path d="M6.276,59.722V19.398h76.629v16.651h3.837V19.77c0-2.081-1.688-3.77-3.771-3.77H6.208c-2.081,0-3.77,1.689-3.77,3.77v47.833  c0,2.082,1.689,3.77,3.77,3.77h28.299v11.152h-5.42v1.004h31.005v-1.004h-5.556V71.373h6.845V59.722H6.276z"/>
<path d="M82.905,41.81v-5.761H63.739c-1.303,0-2.357,1.056-2.357,2.357v21.315h1.484V41.81H82.905z"/>
<path d="M84.037,81.644v-3.176H62.866v-7.095h-1.484v9.801c0,1.302,1.055,2.355,2.357,2.355h22.184  C84.88,83.529,84.037,82.687,84.037,81.644z"/>
<path d="M90.272,41.81v13.266h1.656V38.407c0-1.302-1.056-2.357-2.357-2.357h-2.829v5.761H90.272z"/>
<polygon fill="none" points="90.272,78.468 84.646,78.468 84.646,80.56 91.929,80.56 91.929,58.131 90.272,58.131 "/>
<rect x="82.905" y="36.049" width="3.837" height="5.761"/>
<rect x="61.382" y="59.722" width="1.484" height="11.651"/>
<path d="M96.115,55.076h-4.187v3.055h5.461V80.56h-5.461v0.614c0,1.302-1.056,2.355-2.357,2.355h6.544  c1.042,0,1.885-0.843,1.885-1.886V56.962C98,55.92,97.157,55.076,96.115,55.076z"/>
<rect x="86.742" y="55.076" width="3.53" height="3.055"/>
<path d="M84.037,71.219v7.249h0.609v-7.491C84.451,71.073,84.25,71.155,84.037,71.219z"/>
<path d="M85.923,55.076c-1.043,0-1.886,0.844-1.886,1.886v14.257c0.213-0.063,0.414-0.146,0.609-0.242V58.131h2.096v-3.055H85.923z"/>
<rect x="90.272" y="55.076" width="1.656" height="3.055"/>
<path d="M91.929,81.174V80.56h-7.282v-2.092h-0.609v3.176c0,1.043,0.843,1.886,1.886,1.886h3.648  C90.873,83.529,91.929,82.476,91.929,81.174z"/>
<text x="0.0" y="117.5" font-size="5.0" font-weight="bold" font-family="Helvetica Neue, Helvetica, Arial-Unicode, Arial, Sans-serif" fill="#000000">Created by Derek Palladino</text><text x="0.0" y="122.5" font-size="5.0" font-weight="bold" font-family="Helvetica Neue, Helvetica, Arial-Unicode, Arial, Sans-serif" fill="#000000">from the Noun Project</text></svg>